<svg width="18" height="14" viewBox="0 0 18 14" fill="none" xmlns="http://www.w3.org/2000/svg">
<g clip-path="url(#clip0)">
<path d="M16.9131 10.9736C16.8928 10.9316 16.8739 10.8968 16.8562 10.8689C16.5647 10.3664 16.0056 9.74828 15.1791 9.01447L15.1616 8.99768L15.1529 8.98944L15.1441 8.981L15.1351 8.98094C14.7601 8.63931 14.5227 8.40969 14.4234 8.29226C14.2418 8.06863 14.2022 7.84315 14.3036 7.61557C14.3753 7.44359 14.643 7.08111 15.106 6.52763C15.3495 6.23429 15.5425 5.99918 15.6849 5.82203C16.7125 4.54894 17.1597 3.73413 17.0262 3.37727L16.9741 3.29375C16.939 3.24344 16.8479 3.19705 16.701 3.15435C16.5538 3.11174 16.3653 3.10368 16.1352 3.13005L13.5891 3.13092C13.5479 3.11688 13.489 3.1178 13.4122 3.13404C13.3354 3.15028 13.2971 3.15843 13.2971 3.15843L13.2526 3.17905L13.2173 3.20394C13.1877 3.22035 13.1551 3.24935 13.1195 3.29086C13.084 3.33223 13.0543 3.38085 13.0304 3.43631C12.749 4.10763 12.43 4.73144 12.0727 5.3077C11.8525 5.65127 11.6504 5.94895 11.4659 6.20092C11.2817 6.45281 11.1273 6.63827 11.0029 6.757C10.8783 6.87585 10.7659 6.97098 10.6651 7.04274C10.5644 7.11454 10.4877 7.14466 10.4348 7.13314C10.3818 7.12162 10.3318 7.11021 10.2846 7.09881C10.2024 7.04822 10.1365 6.97969 10.087 6.89317C10.0373 6.80665 10.0042 6.69794 9.98733 6.56711C9.97055 6.4362 9.96084 6.32363 9.95845 6.22902C9.95628 6.13452 9.95838 6.00089 9.96542 5.82852C9.97261 5.65605 9.97609 5.53935 9.97647 5.47816C9.97778 5.26676 9.98356 5.03735 9.99385 4.78989C10.0043 4.54243 10.0127 4.34636 10.0197 4.20191C10.0266 4.05733 10.0303 3.90433 10.0313 3.74302C10.0323 3.58171 10.0227 3.45514 10.0027 3.36319C9.98292 3.27137 9.95229 3.18216 9.91173 3.09561C9.87093 3.00915 9.81083 2.94209 9.73173 2.89426C9.65248 2.84648 9.55381 2.80835 9.43629 2.77974C9.1243 2.7111 8.72673 2.67255 8.24338 2.66395C7.14729 2.64608 6.44254 2.70853 6.12928 2.85122C6.00514 2.91156 5.89262 2.99436 5.79183 3.09936C5.68496 3.22112 5.66975 3.28783 5.74629 3.29929C6.09965 3.35148 6.34929 3.47263 6.49548 3.66264L6.54796 3.76318C6.58882 3.83573 6.62927 3.96398 6.66942 4.14776C6.70949 4.33153 6.73484 4.53471 6.74517 4.75717C6.77208 5.16346 6.76993 5.5111 6.73873 5.80011C6.70743 6.08923 6.67817 6.31428 6.65058 6.47543C6.62298 6.63658 6.58242 6.76705 6.52879 6.86681C6.47507 6.9666 6.43936 7.02757 6.42151 7.04967C6.40369 7.07177 6.38887 7.08568 6.37713 7.0911C6.30035 7.11833 6.22059 7.13195 6.13814 7.13144C6.05556 7.13093 5.95566 7.09133 5.83829 7.01269C5.72095 6.93406 5.59934 6.82629 5.47344 6.68921C5.34755 6.5521 5.20579 6.36071 5.04812 6.11502C4.89057 5.86932 4.72732 5.57908 4.55845 5.2443L4.41854 5.0014C4.3311 4.84515 4.21174 4.6177 4.06033 4.31923C3.90884 4.02065 3.77508 3.7319 3.65898 3.45306C3.61261 3.33597 3.54241 3.2466 3.4485 3.18483L3.4044 3.15945C3.37513 3.13706 3.32805 3.11319 3.26343 3.08765C3.19871 3.06215 3.13114 3.04373 3.06042 3.03222L0.638025 3.03385C0.390498 3.03232 0.222222 3.08421 0.133135 3.18936L0.0974341 3.23915C0.0795815 3.26689 0.0703891 3.31131 0.0700109 3.37253C0.0696329 3.43372 0.0868495 3.50894 0.121692 3.59808C0.470458 4.38461 0.850329 5.14342 1.2613 5.87464C1.67228 6.60585 2.0297 7.19502 2.33334 7.64163C2.63704 8.08856 2.94681 8.51051 3.26266 8.90728C3.5785 9.3042 3.78761 9.5586 3.89001 9.67043C3.99252 9.78246 4.07307 9.86625 4.13165 9.92223L4.35147 10.1238C4.49209 10.2582 4.69881 10.4194 4.97172 10.6074C5.2447 10.7955 5.54704 10.9809 5.87891 11.1639C6.21085 11.3465 6.59739 11.4963 7.03876 11.6131C7.48007 11.7299 7.91 11.7784 8.32862 11.7588L9.3453 11.7651C9.55159 11.7496 9.70818 11.6894 9.81501 11.5844L9.85045 11.5428C9.87431 11.5098 9.89677 11.4583 9.91763 11.389C9.93874 11.3196 9.9495 11.2431 9.95001 11.1598C9.94545 10.9206 9.96607 10.7052 10.0114 10.5136C10.0566 10.3221 10.1077 10.1778 10.1645 10.0807C10.2212 9.98375 10.2851 9.90202 10.356 9.83589C10.4271 9.76961 10.4777 9.7295 10.5073 9.71578C10.5367 9.70196 10.5602 9.69261 10.578 9.68702C10.7197 9.64342 10.8859 9.68752 11.0768 9.81953C11.2676 9.95143 11.4462 10.1139 11.6131 10.3068C11.7799 10.4998 11.9804 10.7165 12.2146 10.9571C12.449 11.1977 12.6541 11.3768 12.8302 11.4949L13.0063 11.5961C13.1239 11.6637 13.2768 11.7258 13.4651 11.7826C13.653 11.8393 13.8179 11.8542 13.9597 11.8273L16.223 11.808C16.4469 11.8094 16.6213 11.7755 16.7452 11.7068C16.8695 11.6381 16.9435 11.5619 16.9677 11.4788C16.9919 11.3955 16.9937 11.3009 16.9739 11.195C16.9536 11.0893 16.9334 11.0154 16.9131 10.9736Z" fill="#9C9C9C"/>
</g>
<defs>
<clipPath id="clip0">
<rect width="16.9798" height="13.0614" fill="white" transform="translate(0.0908203) rotate(0.353929)"/>
</clipPath>
</defs>
</svg>
