<svg width="30" height="35" viewBox="0 0 30 35" fill="none" xmlns="http://www.w3.org/2000/svg"><path d="M2.877 11.23H2.79a2.05 2.05 0 0 0-2.044 2.044v8.902c0 1.128.918 2.046 2.044 2.046h.09a2.05 2.05 0 0 0 2.044-2.046v-8.902a2.053 2.053 0 0 0-2.046-2.044zm3.025 14.381c0 1.034.845 1.877 1.879 1.877h2.008v4.808a2.05 2.05 0 0 0 2.044 2.047h.088c1.128 0 2.048-.92 2.048-2.047v-4.808h2.806v4.808c0 1.129.924 2.047 2.047 2.047h.087a2.05 2.05 0 0 0 2.046-2.047v-4.808h2.01a1.881 1.881 0 0 0 1.877-1.877V11.556H5.902V25.61zM20.09 3.032L21.683.57a.339.339 0 1 0-.568-.37l-1.654 2.548a10.781 10.781 0 0 0-4.089-.794c-1.464 0-2.847.285-4.09.794L9.633.2A.34.34 0 0 0 9.16.1a.339.339 0 0 0-.1.469l1.597 2.462C7.78 4.442 5.84 7.1 5.84 10.15c0 .187.011.372.028.555H24.88c.016-.183.027-.368.027-.555 0-3.05-1.942-5.708-4.819-7.118zM10.964 7.44a.914.914 0 1 1 0-1.826.914.914 0 0 1 0 1.826zm8.815 0a.914.914 0 1 1 0-1.826.91.91 0 0 1 .914.912.911.911 0 0 1-.914.914zm8.175 3.79h-.085a2.053 2.053 0 0 0-2.048 2.044v8.902c0 1.128.923 2.046 2.048 2.046h.086A2.05 2.05 0 0 0 30 22.176v-8.902c0-1.123-.92-2.044-2.046-2.044z" fill="#fff"/></svg>