<svg width="53" height="53" viewBox="0 0 53 53" fill="none" xmlns="http://www.w3.org/2000/svg"><g clip-path="url(#a)" fill="#F92F5F"><path d="M1.216 10.557c.672 0 1.217-.544 1.217-1.216V4.154l7.833 7.833a1.213 1.213 0 0 0 1.72 0 1.216 1.216 0 0 0 0-1.72L4.152 2.434H9.34A1.216 1.216 0 0 0 9.34 0H1.216A1.218 1.218 0 0 0 0 1.217v8.124c0 .672.544 1.216 1.216 1.216zm50.591 32.09c-.66 0-1.193.535-1.193 1.193v5.087l-7.92-7.92a1.193 1.193 0 1 0-1.687 1.687l7.92 7.92H43.84a1.193 1.193 0 1 0 0 2.386h7.967c.659 0 1.193-.534 1.193-1.193V43.84c0-.658-.534-1.193-1.193-1.193zm-41.501-1.64l-7.92 7.92V43.84a1.193 1.193 0 1 0-2.386 0v7.967C0 52.466.534 53 1.193 53H9.16a1.193 1.193 0 1 0 0-2.386H4.073l7.92-7.92a1.193 1.193 0 1 0-1.687-1.687zM51.783 0H43.66a1.216 1.216 0 1 0 0 2.433h5.187l-7.833 7.833a1.216 1.216 0 1 0 1.72 1.72l7.833-7.833v5.186a1.216 1.216 0 1 0 2.433 0V1.216C53 .544 52.455 0 51.783 0z"/></g><defs><clipPath id="a"><path fill="#fff" d="M0 0h53v53H0z"/></clipPath></defs></svg>