<svg width="65" height="65" viewBox="0 0 65 65" fill="none" xmlns="http://www.w3.org/2000/svg"><g clip-path="url(#a)"><path d="M58.566 26.46H43.301a2.991 2.991 0 0 0-2.987 2.987v9.225h-3.185v-5.154a2.99 2.99 0 0 0-2.987-2.988h-4.124a1.08 1.08 0 0 1-.838-.397l-2.124-2.596L44.098 1.473A.952.952 0 1 0 42.504.431L32.11 16.33l-6.62-5.627 4.425-9.343a.952.952 0 0 0-1.721-.815l-9.088 19.186-6.586 6.586a2.99 2.99 0 0 0 0 4.225l7.967 7.966a7.019 7.019 0 0 0 2.879 1.747 2.965 2.965 0 0 0-.352 1.404v9.225H8.7a2.99 2.99 0 0 0-2.987 2.987v10.177a.952.952 0 0 0 1.904 0V53.87c0-.597.486-1.083 1.083-1.083h15.265a.952.952 0 0 0 .953-.952V41.66c0-.597.486-1.083 1.083-1.083h15.265a.952.952 0 0 0 .952-.952V29.447c0-.597.486-1.083 1.083-1.083h15.265a.952.952 0 0 0 0-1.905zm-37.553-6.31l1.804-3.809 5.95 5.1-2.976 4.55-4.778-5.84zm10.045-2.214l-1.24 1.897-6.156-5.276.982-2.073 6.414 5.452zm-5.581 20.735a5.12 5.12 0 0 1-3.645-1.51l-7.966-7.967a1.084 1.084 0 0 1 0-1.532l.94-.94 8.908 8.907a2.968 2.968 0 0 0 2.112.875h4.245a.952.952 0 1 0 0-1.904h-4.245c-.29 0-.561-.113-.766-.317l-8.907-8.908 3.671-3.67 7.882 9.633a2.975 2.975 0 0 0 2.312 1.096h4.124c.597 0 1.083.486 1.083 1.083V34.6h-1.084a.952.952 0 1 0 0 1.904h1.084v2.167h-9.748z" fill="#F92F5F"/></g><defs><clipPath id="a"><path fill="#fff" d="M0 0h65v65H0z"/></clipPath></defs></svg>