<svg width="65" height="65" viewBox="0 0 65 65" fill="none" xmlns="http://www.w3.org/2000/svg"><g clip-path="url(#a)" fill="#F92F5F"><path d="M46.372 0H7.957a7.48 7.48 0 0 0-7.47 7.47v38.325a7.48 7.48 0 0 0 7.47 7.47h11.738V51.13H7.957a5.342 5.342 0 0 1-5.335-5.336v-18.05h6.853a1.148 1.148 0 0 0 .977-1.584 4.268 4.268 0 1 1 7.815 0 1.107 1.107 0 0 0 .978 1.584h6.853v6.402A6.403 6.403 0 0 0 22.47 46.33l.853-1.955a4.268 4.268 0 1 1 3.415-7.821 1.067 1.067 0 0 0 1.494-.978v-7.831h5.426c-.06.352-.091.71-.09 1.067a6.42 6.42 0 0 0 5.121 6.274l.427-2.09A4.282 4.282 0 0 1 35.7 28.81c0-.588.123-1.17.36-1.707a1.067 1.067 0 0 0-.977-1.494h-6.852v-5.426a6.402 6.402 0 1 0 0-12.623V2.133h18.14a5.342 5.342 0 0 1 5.335 5.335v18.14h-6.852a1.067 1.067 0 0 0-.978 1.495c.238.537.36 1.119.36 1.707h2.135c0-.358-.03-.715-.09-1.067h6.492c.59 0 1.067-.478 1.067-1.067V7.469A7.48 7.48 0 0 0 46.371 0zM29.299 9.604a4.268 4.268 0 0 1 0 8.536 4.23 4.23 0 0 1-1.707-.36 1.067 1.067 0 0 0-1.494.977v6.764h-5.419c.054-.323.081-.65.083-.978v-.089a6.402 6.402 0 1 0-12.805 0v.089c.002.328.03.655.084.978H2.622V7.47a5.342 5.342 0 0 1 5.335-5.335h18.14v6.853a1.067 1.067 0 0 0 1.494.977 4.216 4.216 0 0 1 1.708-.36z"/><path d="M62.82 45.865l-8.97-6.178-3.446-9.205a1.067 1.067 0 0 0-1.43-.604l-6.937 3.068c-.52.23-.768.826-.565 1.357.115.299.223.525.337.76.114.235.22.454.349.801a4.295 4.295 0 0 1-2.496 5.52 4.268 4.268 0 0 1-5.757-4.237 1.067 1.067 0 0 0-1.442-1.054l-7.414 2.792c-.55.208-.83.821-.623 1.372l2.66 7.11c-.352.065-.698.16-1.034.286a6.416 6.416 0 1 0 5.468 11.558l1.908 5.096a1.067 1.067 0 0 0 1.376.624l10.572-3.983a5.73 5.73 0 0 0 3.38 3.017l.674-2.027a3.598 3.598 0 0 1-2.04-1.744l3.217-1.21a7.447 7.447 0 0 0 7.027 4.952V61.8a5.368 5.368 0 0 1-5.336-5.335c0-.283-.112-.554-.312-.754l-3.716-3.716a1.583 1.583 0 0 1-.146-2.058 1.554 1.554 0 0 1 1.147-.626 1.53 1.53 0 0 1 1.225.458l7.45 7.45 1.51-1.508-2.205-2.205a7.444 7.444 0 0 0-.095-4.988l-2-5.341 6.448 4.44a3.208 3.208 0 0 1 1.365 2.623v13.783h2.134V50.241a5.345 5.345 0 0 0-2.282-4.376zm-7.663 3.402c.295.783.402 1.625.312 2.457l-3.464-3.463a3.708 3.708 0 1 0-5.244 5.244l3.375 3.375-15.08 5.68-2.033-5.434a1.067 1.067 0 0 0-1.746-.389 4.268 4.268 0 1 1-4.469-7.084 4.16 4.16 0 0 1 1.056-.24 3.93 3.93 0 0 1 .669-.022 1.067 1.067 0 0 0 1.055-1.44l-2.787-7.44 5.081-1.914a6.403 6.403 0 0 0 8.537 4.787 6.43 6.43 0 0 0 3.742-8.264 9.508 9.508 0 0 0-.272-.656l4.908-2.174 6.36 16.977z"/></g><defs><clipPath id="a"><path fill="#fff" d="M0 0h65v65H0z"/></clipPath></defs></svg>