<svg width="65" height="65" viewBox="0 0 65 65" fill="none" xmlns="http://www.w3.org/2000/svg"><path d="M13.615 17.333c-3.638 0-6.588-2.91-6.588-6.5s2.95-6.5 6.588-6.5 6.588 2.91 6.588 6.5c-.004 3.588-2.951 6.496-6.588 6.5zm0-10.833c-2.426 0-4.392 1.94-4.392 4.333 0 2.393 1.966 4.334 4.392 4.334s4.392-1.94 4.392-4.334c0-2.393-1.966-4.333-4.392-4.333zM41 46.918a2 2 0 0 0-2 2V51.3a2 2 0 0 1-2 2h-7.916a2 2 0 0 1-2-2V40.155a2 2 0 0 0-1.378-1.9l-3.745-1.226a2 2 0 0 1-1.377-1.9v-7.484a2 2 0 0 1 2-2h7.75c2.99-.003 5.412-2.383 5.416-5.318V20.2a2 2 0 0 0-2-2H5.417C2.427 18.203.004 20.582 0 23.518v11.7c0 1.762 1.455 3.19 3.25 3.19h.167a2 2 0 0 1 2 2v15.146a2 2 0 0 1-2 2H2a2 2 0 0 0-2 2v4.362a1.083 1.083 0 1 0 2.167 0v-2.235a2 2 0 0 1 2-2h11.166a2 2 0 0 1 2 2v2.236a1.083 1.083 0 1 0 2.167 0v-6.49a2 2 0 0 1 2-2H37a2 2 0 0 1 2 2v6.49a1.084 1.084 0 0 0 2.167 0V51.044a2 2 0 0 1 2-2h17.666a2 2 0 0 1 2 2v12.872a1.083 1.083 0 1 0 2.167 0V48.918a2 2 0 0 0-2-2H41zM6.5 24.581c-.598 0-1.083.486-1.083 1.084v8.617a2 2 0 0 1-2 2H3.25a1.074 1.074 0 0 1-1.083-1.064v-11.7c0-1.763 1.455-3.19 3.25-3.19h26.166c1.105 0 2.04.978 1.385 1.867a3.265 3.265 0 0 1-2.635 1.323h-9.916a2 2 0 0 0-2 2v11.144a2 2 0 0 0 1.378 1.901l3.744 1.225a2 2 0 0 1 1.378 1.901v9.986a1.625 1.625 0 0 1-3.25 0v-8.354a2 2 0 0 0-1.309-1.877l-6.834-2.516a2 2 0 0 0-2.69 1.877v15.124a1.625 1.625 0 0 1-3.25 0V25.665c0-.598-.485-1.084-1.084-1.084zM18.417 53.3c-.599 0-1.084.485-1.084 1.083v1.171a2 2 0 0 1-2 2H15a2 2 0 0 1-2-2v-11.68a2 2 0 0 1 2.691-1.876l2.5.92a2 2 0 0 1 1.309 1.877v7.422c0 .598-.485 1.083-1.083 1.083z" fill="#F92F5F"/><path d="M48.396 42.2a2 2 0 0 0 2 2h4.613a2 2 0 0 0 2-2V19.188a2 2 0 0 1 2-2h.662c1.563 0 2.522-1.712 1.705-3.045L54.408 2.78c-.78-1.272-2.63-1.272-3.41 0L44.03 14.143c-.817 1.332.142 3.045 1.705 3.045h.66a2 2 0 0 1 2 2V42.2zm.527-27.173c-1.272 0-2.052-1.393-1.387-2.477l3.462-5.646c.78-1.273 2.63-1.273 3.41 0l3.462 5.646c.665 1.084-.115 2.477-1.387 2.477-.899 0-1.627.729-1.627 1.627V40.04a2 2 0 0 1-2 2h-.306a2 2 0 0 1-2-2V16.654c0-.898-.729-1.627-1.627-1.627z" fill="#F92F5F"/></svg>