<svg width="65" height="65" viewBox="0 0 65 65" fill="none" xmlns="http://www.w3.org/2000/svg"><path d="M32.5 15.167c-9.573 0-17.333 7.76-17.333 17.333 0 9.573 7.76 17.333 17.333 17.333 9.573 0 17.333-7.76 17.333-17.333-.011-9.568-7.765-17.322-17.333-17.333zm15.111 16.25h-6.52a8.6 8.6 0 0 0-1.753-4.225l4.61-4.611a15.078 15.078 0 0 1 3.663 8.836zM33.583 17.389a15.078 15.078 0 0 1 8.834 3.662l-4.609 4.611a8.615 8.615 0 0 0-4.225-1.754v-6.52zm-2.166 0v6.52a8.6 8.6 0 0 0-4.225 1.753l-4.611-4.61a15.078 15.078 0 0 1 8.836-3.663zM21.05 22.583l4.611 4.609a8.615 8.615 0 0 0-1.754 4.225h-6.52a15.078 15.078 0 0 1 3.663-8.834zm-3.662 11h6.52a8.6 8.6 0 0 0 1.753 4.225l-4.61 4.611a15.079 15.079 0 0 1-3.663-8.836zm14.028 14.028a15.078 15.078 0 0 1-8.834-3.662l4.609-4.611a8.615 8.615 0 0 0 4.225 1.754v6.52zM26 32.5a6.5 6.5 0 1 1 13 0 6.5 6.5 0 0 1-13 0zm7.583 15.111v-6.52a8.6 8.6 0 0 0 4.225-1.753l4.611 4.61a15.078 15.078 0 0 1-8.836 3.663zm10.366-5.194l-4.611-4.609a8.615 8.615 0 0 0 1.754-4.225h6.52a15.079 15.079 0 0 1-3.663 8.834z" fill="#F92F5F"/><path d="M32.5 28.167a4.333 4.333 0 1 0 0 8.666 4.333 4.333 0 0 0 0-8.666zm0 6.5a2.167 2.167 0 1 1 0-4.333 2.167 2.167 0 0 1 0 4.333z" fill="#F92F5F"/><path d="M61.75 29.25h-4.333c-.089 0-.178.011-.264.032l-3.133.784a21.545 21.545 0 0 0-4.594-11.05l2.782-1.67c.076-.045.146-.1.21-.162l3.063-3.064a3.25 3.25 0 0 0 0-4.596 3.326 3.326 0 0 0-4.596 0l-3.064 3.063a1.079 1.079 0 0 0-.163.21l-1.67 2.781a21.545 21.545 0 0 0-11.05-4.594l.784-3.133a1.1 1.1 0 0 0 .028-.268V3.25a3.25 3.25 0 0 0-6.5 0v4.333c0 .089.011.177.032.264l.784 3.133a21.545 21.545 0 0 0-11.05 4.594l-1.67-2.782a1.078 1.078 0 0 0-.162-.21L14.116 9.52a3.328 3.328 0 0 0-4.597 0 3.25 3.25 0 0 0 0 4.596l3.064 3.065c.063.062.133.117.209.162l2.782 1.67a21.545 21.545 0 0 0-4.594 11.05l-3.133-.78a1.087 1.087 0 0 0-.264-.032H3.25a3.25 3.25 0 0 0 0 6.5h4.333c.089 0 .177-.011.264-.032l3.133-.784a21.545 21.545 0 0 0 4.594 11.05l-2.782 1.67c-.076.045-.146.1-.21.162L9.52 50.884a3.25 3.25 0 0 0 4.558 4.634l.038-.037 3.065-3.064a1.08 1.08 0 0 0 .162-.209l1.67-2.782a21.545 21.545 0 0 0 11.05 4.594l-.784 3.133a1.08 1.08 0 0 0-.028.264v4.333a3.25 3.25 0 0 0 6.5 0v-4.333c0-.089-.011-.178-.032-.264l-.784-3.133a21.545 21.545 0 0 0 11.05-4.594l1.67 2.782c.045.076.1.146.162.21l3.064 3.063a3.25 3.25 0 1 0 4.596-4.596l-3.063-3.064a1.082 1.082 0 0 0-.21-.163l-2.781-1.67a21.545 21.545 0 0 0 4.594-11.05l3.133.784c.088.02.178.03.268.028h4.333a3.25 3.25 0 0 0 0-6.5zm-50.917 3.487l-3.383.846h-4.2a1.083 1.083 0 0 1 0-2.166h4.2l3.383.846v.474zM49.447 14.02l2.97-2.97a1.107 1.107 0 0 1 1.532 0 1.083 1.083 0 0 1 0 1.53l-2.97 2.971-2.987 1.796-.336-.335 1.79-2.992zM31.417 3.25a1.083 1.083 0 0 1 2.166 0v4.2l-.846 3.383h-.474l-.846-3.383v-4.2zM14.02 15.55l-2.97-2.967a1.083 1.083 0 0 1 0-1.532 1.107 1.107 0 0 1 1.53 0l2.971 2.97 1.796 2.987-.335.336-2.992-1.794zm1.533 35.43l-2.97 2.97c-.428.41-1.104.41-1.532 0a1.083 1.083 0 0 1 0-1.53l2.97-2.971 2.987-1.796.336.335-1.79 2.992zm18.03 10.77a1.083 1.083 0 1 1-2.166 0v-4.2l.846-3.383h.474l.846 3.383v4.2zm17.397-12.3l2.97 2.967a1.083 1.083 0 0 1 0 1.532c-.428.41-1.103.41-1.53 0l-2.971-2.97-1.796-2.987.335-.336 2.992 1.794zM32.5 52C21.73 52 13 43.27 13 32.5S21.73 13 32.5 13 52 21.73 52 32.5c-.013 10.764-8.736 19.487-19.5 19.5zm29.25-18.417h-4.2l-3.383-.846v-.47l3.383-.85h4.2a1.083 1.083 0 1 1 0 2.166z" fill="#F92F5F"/></svg>