<svg width="65" height="65" viewBox="0 0 65 65" fill="none" xmlns="http://www.w3.org/2000/svg"><g clip-path="url(#a)" fill="#F92F5F"><path d="M54.2 48.519a.952.952 0 0 0-1.75.747c1.268 2.974 1.031 5.057.61 6.281a5.017 5.017 0 0 1-2.991 3.104 5.995 5.995 0 0 1-2.142.381h-2.882v-3.321h2.882c1.288 0 1.794-.676 1.993-1.249.207-.6.491-2.335-1.316-5.457-.856-1.48-2.553-3.865-5.779-6.82a.952.952 0 0 0-1.595.702v9.84a2.57 2.57 0 0 0-2.195 2.54v4.185a2.57 2.57 0 0 0 2.195 2.539v2.057a.952.952 0 1 0 1.904 0v-2.056c.67-.102 1.243-.5 1.582-1.056h3.21c.58 0 1.144-.06 1.69-.175l.473 3.417a.952.952 0 0 0 1.886-.26l-.526-3.8c1.61-.82 2.808-2.2 3.41-3.95.532-1.541.848-4.118-.658-7.65zm-11.059 11.25a.347.347 0 0 1-.346.347h-1.191a.665.665 0 0 1-.665-.664v-4.186c0-.366.298-.664.665-.664h1.19c.192 0 .347.155.347.346v4.822zm-.007-7.043v-7.597c2.03 2.069 3.184 3.726 3.822 4.83 1.193 2.061 1.297 3.376 1.18 3.832a1.201 1.201 0 0 1-.21.016h-3.195a2.252 2.252 0 0 0-1.597-1.081zm-6.565-29.543a.953.953 0 0 0-1.24.524 3.037 3.037 0 0 1-2.828 1.902 3.038 3.038 0 0 1-2.159-.893 3.013 3.013 0 0 1-.668-1.008.952.952 0 0 0-1.766.713 4.904 4.904 0 0 0 1.089 1.642 4.93 4.93 0 0 0 3.504 1.45 4.934 4.934 0 0 0 4.592-3.09.952.952 0 0 0-.524-1.24zm-9.017-5.906a.952.952 0 0 0-.952.952v.477a.952.952 0 0 0 1.904 0v-.477a.952.952 0 0 0-.952-.952zm9.898 0a.952.952 0 0 0-.953.952v.477a.952.952 0 0 0 1.905 0v-.477a.952.952 0 0 0-.953-.952zm.596 29.273l-1.62-1.904a.952.952 0 0 0-.725-.335h-6.4a.952.952 0 0 0-.725.335l-1.62 1.904a.952.952 0 0 0-.091 1.108l3.484 5.784a.952.952 0 0 0 .815.461h2.674a.952.952 0 0 0 .815-.46l3.484-5.785a.952.952 0 0 0-.09-1.108zM33.3 52h-1.597l-2.852-4.738.89-1.047h5.52l.892 1.047L33.299 52z"/><path d="M52.2 44.912c-.937-1.385-2.097-2.807-3.444-4.229l-.25-1.798c-.555-4.012-4.028-7.036-8.077-7.036h-1.323a10.78 10.78 0 0 0 4.132-7.12h1.407a3.264 3.264 0 0 0 3.261-3.261v-1.093a3.262 3.262 0 0 0-1.712-2.869V8.347a5.522 5.522 0 0 0-5.516-5.516h-1.265A5.503 5.503 0 0 0 34.623 0H28.16c-2.168 0-4.28.759-5.948 2.136a.952.952 0 0 0 1.212 1.469 7.452 7.452 0 0 1 4.736-1.7h6.464c2.52 0 3.305 2.248 3.345 2.293a.95.95 0 0 0 .856.537h1.854a3.616 3.616 0 0 1 3.612 3.612v8.768h-.951v-3.516a9.752 9.752 0 0 0-3.203-7.217 1.37 1.37 0 0 0-2.27.78 7.043 7.043 0 0 1-6.952 5.825h-8.299a.952.952 0 0 0-.952.952v3.176h-.95V9.35c0-1.056.215-2.075.641-3.03a.952.952 0 0 0-1.738-.776 9.274 9.274 0 0 0-.808 3.806v8.156a3.263 3.263 0 0 0-1.713 2.869v1.093a3.264 3.264 0 0 0 3.262 3.26h1.408a10.907 10.907 0 0 0 4.133 7.12h-1.325c-4.05 0-7.522 3.025-8.078 7.037l-.249 1.796c-1.82 1.92-3.29 3.84-4.371 5.707-2.642 4.568-2.4 7.839-1.733 9.779.603 1.75 1.8 3.13 3.411 3.951l-.526 3.799a.952.952 0 1 0 1.886.261l.474-3.417c.545.115 1.11.175 1.688.175h3.21c.34.557.913.954 1.583 1.056v2.056a.952.952 0 1 0 1.904 0V61.99a2.57 2.57 0 0 0 2.195-2.538v-4.186a2.57 2.57 0 0 0-2.195-2.538v-9.84a.952.952 0 0 0-1.596-.703c-3.226 2.955-4.923 5.34-5.778 6.82-1.808 3.122-1.523 4.856-1.315 5.462.197.567.703 1.244 1.992 1.244h2.881v3.32h-2.881a5.993 5.993 0 0 1-2.14-.38 5.018 5.018 0 0 1-2.993-3.104c-.539-1.565-.701-4.26 1.58-8.205 1.046-1.808 2.496-3.68 4.308-5.564l.002-.001.001-.002a50.703 50.703 0 0 1 4.15-3.827c.073-.061.15-.12.227-.175l1.091 1.365a3.19 3.19 0 0 0 2.503 1.203h4.061c.78.524 1.684.8 2.636.8a4.68 4.68 0 0 0 2.636-.8h4.06a3.19 3.19 0 0 0 2.504-1.203l1.091-1.365c.077.056.152.113.226.173a50.705 50.705 0 0 1 4.15 3.83c.001 0 .002 0 .003.002 1.364 1.419 2.526 2.832 3.452 4.201a.951.951 0 1 0 1.577-1.067zm-29.993 9.69h1.19c.367 0 .665.298.665.664v4.186a.665.665 0 0 1-.664.665h-1.191a.347.347 0 0 1-.347-.347v-4.822c0-.19.156-.346.347-.346zm-5.132-.796c-.097 0-.164-.007-.208-.014-.118-.462-.012-1.776 1.18-3.834.637-1.103 1.792-2.76 3.82-4.83v7.598c-.68.103-1.26.51-1.596 1.08h-3.196zm8.729-15.37c-.397 0-.768-.178-1.016-.488l-2.005-2.506a.952.952 0 0 0-1.677.78 6.268 6.268 0 0 0-.338.259 57.79 57.79 0 0 0-2.246 1.962c.704-2.718 3.189-4.69 6.05-4.69h3.186v2.646c0 .719.16 1.411.457 2.037h-2.411zm9.535-2.037a2.838 2.838 0 1 1-5.677 0v-2.646c.248.001 1.27.343 2.839.343.918 0 1.817-.114 2.704-.341l.007-.002h.127v2.646zm-2.838-4.208a8.977 8.977 0 0 1-3.425-.68 8.972 8.972 0 0 1-5.495-7.784.952.952 0 0 0-.95-.903h-2.274a1.358 1.358 0 0 1-1.358-1.356v-1.093c0-.748.61-1.356 1.358-1.356h2.258a.952.952 0 0 0 .952-.952v-3.175h7.347a8.946 8.946 0 0 0 8.6-6.427 7.845 7.845 0 0 1 1.92 5.134v4.468c0 .526.427.952.953.952h2.258c.748 0 1.357.608 1.357 1.356v1.093c0 .747-.608 1.355-1.357 1.355h-2.274a.952.952 0 0 0-.95.904 8.888 8.888 0 0 1-2.761 6.002 8.897 8.897 0 0 1-6.16 2.462zm11.73 4.288a6.219 6.219 0 0 0-.336-.257.952.952 0 0 0-1.677-.78l-2.004 2.506c-.249.31-.619.488-1.016.488h-2.412c.3-.628.458-1.32.458-2.037v-2.646h3.185c2.862 0 5.347 1.972 6.05 4.69-.71-.655-1.46-1.31-2.247-1.964z"/></g><defs><clipPath id="a"><path fill="#fff" d="M0 0h65v65H0z"/></clipPath></defs></svg>