<svg width="36" height="36" viewBox="0 0 36 36" fill="none" xmlns="http://www.w3.org/2000/svg"><g clip-path="url(#a)"><path d="M27.826 19.128c-.045-4.559 3.718-6.745 3.886-6.854-2.114-3.094-5.409-3.518-6.582-3.567-2.804-.284-5.47 1.65-6.893 1.65-1.42 0-3.615-1.608-5.94-1.566-3.056.045-5.873 1.777-7.447 4.513-3.174 5.51-.813 13.67 2.282 18.138 1.512 2.187 3.315 4.644 5.682 4.556 2.28-.091 3.142-1.475 5.898-1.475s3.53 1.475 5.943 1.43c2.453-.046 4.007-2.23 5.508-4.423 1.737-2.537 2.452-4.994 2.494-5.12-.055-.024-4.784-1.836-4.831-7.282zm-4.533-13.38C24.55 4.226 25.398 2.11 25.166 0c-1.81.074-4.003 1.206-5.302 2.726-1.165 1.35-2.185 3.503-1.911 5.57 2.02.158 4.082-1.026 5.34-2.547z" fill="#fff"/></g><defs><clipPath id="a"><path fill="#fff" d="M0 0h36v36H0z"/></clipPath></defs></svg>