<svg width="30" height="30" viewBox="0 0 30 30" fill="none" xmlns="http://www.w3.org/2000/svg"><path d="M15.06 0h-.039C8.871 0 3.867 5.004 3.867 11.155c0 3.373 1.724 6.003 3.644 8.623L15.007 30l7.527-10.223c1.92-2.619 3.644-5.249 3.644-8.621C26.178 5.016 21.194.02 15.06 0zm6.057 18.738S15.295 26.7 15.03 27.06l-6.1-8.322c-1.808-2.465-3.304-4.737-3.304-7.582 0-5.17 4.196-9.38 9.361-9.398h.037c5.182 0 9.398 4.216 9.398 9.398 0 2.845-1.497 5.117-3.304 7.582z" fill="#828282"/><path d="M15.023 4.395a6.769 6.769 0 0 0-6.761 6.76 6.769 6.769 0 0 0 6.76 6.762 6.769 6.769 0 0 0 6.762-6.761 6.769 6.769 0 0 0-6.761-6.761zm0 11.764a5.009 5.009 0 0 1-5.004-5.003 5.01 5.01 0 0 1 5.004-5.004 5.01 5.01 0 0 1 5.003 5.004 5.009 5.009 0 0 1-5.003 5.003z" fill="#828282"/></svg>