<svg width="229" height="122" viewBox="0 0 229 122" fill="none" xmlns="http://www.w3.org/2000/svg"><path d="M59.98 46.083v44.933c0 9.84-2.765 17.376-8.298 22.607-5.533 5.294-13.172 7.941-22.918 7.941-5.595 0-10.72-.779-15.372-2.336-4.653-1.494-8.614-3.643-11.883-6.445l5.941-11.211c5.973 4.796 12.952 7.194 20.937 7.194 5.533 0 9.62-1.371 12.26-4.111 2.704-2.802 4.056-7.1 4.056-12.891v-4.017c-4.401 5.356-10.626 8.034-18.674 8.034-8.362 0-14.806-2.336-19.333-7.007C2.232 84.041 0 77.253 0 68.41V46.083h15.278v21.392c0 5.107 1.226 8.968 3.678 11.584 2.452 2.616 5.91 3.924 10.374 3.924 4.716 0 8.457-1.37 11.223-4.11 2.767-2.741 4.15-6.883 4.15-12.425V46.083H59.98zm37.645 66.513c-6.853 0-13.046-1.464-18.579-4.391-5.47-2.927-9.777-6.944-12.92-12.05-3.081-5.17-4.621-10.962-4.621-17.376 0-6.415 1.54-12.175 4.62-17.282 3.144-5.17 7.451-9.217 12.921-12.145 5.533-2.927 11.726-4.39 18.58-4.39 6.852 0 13.014 1.463 18.484 4.39 5.47 2.928 9.777 6.976 12.92 12.145 3.144 5.106 4.716 10.867 4.716 17.282 0 6.414-1.572 12.206-4.716 17.375-3.143 5.107-7.45 9.124-12.92 12.051-5.47 2.927-11.632 4.391-18.485 4.391zm0-12.892c3.898 0 7.419-.872 10.563-2.615 3.144-1.807 5.596-4.298 7.356-7.474 1.823-3.176 2.735-6.788 2.735-10.836s-.912-7.66-2.735-10.837c-1.76-3.176-4.212-5.636-7.356-7.38-3.144-1.805-6.665-2.709-10.563-2.709-3.898 0-7.419.904-10.562 2.71-3.144 1.743-5.628 4.203-7.45 7.38-1.761 3.176-2.642 6.788-2.642 10.836s.88 7.66 2.641 10.836c1.823 3.176 4.307 5.667 7.45 7.474 3.144 1.743 6.665 2.615 10.563 2.615zm97.21-53.621v65.392h-14.807v-7.941c-4.527 6.041-11.191 9.062-19.993 9.062-7.797 0-13.895-2.429-18.296-7.287-4.339-4.92-6.508-11.895-6.508-20.925V46.083h15.278v37.834c0 5.231 1.226 9.186 3.678 11.864 2.515 2.615 5.911 3.923 10.186 3.923 4.59 0 8.268-1.401 11.034-4.204 2.767-2.864 4.15-7.068 4.15-12.61V46.082h15.278zm15.616-34.863c-.48.732-1.055 1.177-1.727 1.336a2.905 2.905 0 0 1-1.87-.143 3.593 3.593 0 0 1-1.534-1.24c-.384-.605-.544-1.289-.48-2.053.032-.509.16-1.065.384-1.67.224-.604.495-1.177.815-1.718a15.26 15.26 0 0 1 1.103-1.574 9.625 9.625 0 0 1 1.247-1.289 13.03 13.03 0 0 1 2.589-1.575 15.09 15.09 0 0 1 3.069-1.002 13.882 13.882 0 0 1 3.213-.286c1.087.032 2.094.19 3.021.477 2.558.795 4.54 2.052 5.946 3.77 1.407 1.718 2.11 3.945 2.11 6.68 0 1.305-.128 2.482-.383 3.532a9.165 9.165 0 0 1-1.247 2.959c-.576.954-1.359 1.925-2.35 2.91-.959.987-2.158 2.069-3.596 3.246-.48.413-.975.827-1.487 1.24l-1.534 1.241c-.16.127-.464.318-.912.573-.447.254-.847.509-1.198.763-.352.255-.56.493-.624.716-.064.223.192.35.767.382.704.063 1.263.08 1.679.048.415-.032.975-.048 1.678-.048.831 0 1.647-.016 2.446-.048a20.105 20.105 0 0 1 2.397.048c.32.032.672.048 1.055.048a6.934 6.934 0 0 1 1.151 0c.384 0 .752.047 1.103.143.352.063.656.206.911.43.256.222.448.524.576.906.128.382.192.795.192 1.24.032.414 0 .828-.096 1.241-.096.382-.256.684-.48.907-.415.477-.927.716-1.534.716a33.12 33.12 0 0 0-1.727-.048h-17.215c-.32 0-.671.016-1.055.048a2.35 2.35 0 0 1-.959-.096c-.575-.159-.863-.46-.863-.906.032-.446.048-.907.048-1.384 0-.795.192-1.527.575-2.195a8.34 8.34 0 0 1 1.439-1.91 18.926 18.926 0 0 1 1.918-1.67 54.697 54.697 0 0 0 1.87-1.479 49.513 49.513 0 0 1 2.686-2.195 68.127 68.127 0 0 0 2.733-2.195 41.156 41.156 0 0 0 2.829-2.53c.799-.763 1.439-1.478 1.918-2.146.48-.668.832-1.32 1.055-1.957a6.56 6.56 0 0 0 .336-2.1c0-1.622-.496-2.863-1.487-3.722-.991-.89-2.253-1.336-3.788-1.336a7.202 7.202 0 0 0-3.165.716c-.959.477-1.758 1.177-2.397 2.1-.192.35-.384.715-.576 1.097-.16.35-.352.684-.575 1.002z" fill="#fff"/></svg>