<svg width="18" height="14" viewBox="0 0 18 14" fill="none" xmlns="http://www.w3.org/2000/svg"><g clip-path="url(#a)"><path d="M16.913 10.974a1.057 1.057 0 0 0-.057-.105c-.291-.503-.85-1.12-1.677-1.855l-.017-.016-.01-.009-.008-.008h-.009c-.375-.342-.612-.571-.712-.689-.181-.223-.22-.449-.12-.676.072-.172.34-.535.803-1.088.244-.294.437-.529.579-.706 1.027-1.273 1.475-2.088 1.341-2.445l-.052-.083c-.035-.05-.126-.097-.273-.14a1.473 1.473 0 0 0-.566-.024H13.59a.35.35 0 0 0-.177.004l-.115.024-.044.021-.036.025a.383.383 0 0 0-.098.087.565.565 0 0 0-.089.145c-.281.672-.6 1.295-.957 1.872-.22.343-.423.641-.607.893a4.36 4.36 0 0 1-.463.556 3.153 3.153 0 0 1-.338.286c-.1.072-.177.102-.23.09a6.727 6.727 0 0 1-.15-.034.568.568 0 0 1-.198-.206.878.878 0 0 1-.1-.326 3.39 3.39 0 0 1-.029-.338 6.84 6.84 0 0 1 .007-.4c.008-.173.011-.29.011-.35.002-.212.008-.442.018-.69l.026-.587c.007-.145.01-.298.011-.459a1.822 1.822 0 0 0-.028-.38 1.25 1.25 0 0 0-.091-.267.458.458 0 0 0-.18-.202 1.057 1.057 0 0 0-.296-.114 6.222 6.222 0 0 0-1.193-.116c-1.096-.018-1.8.045-2.114.187a1.18 1.18 0 0 0-.337.248c-.107.122-.122.189-.046.2.354.052.603.174.75.364l.052.1c.04.073.081.201.121.385.04.184.066.387.076.61A6.13 6.13 0 0 1 6.74 5.8c-.032.29-.06.514-.088.675a1.296 1.296 0 0 1-.23.575.149.149 0 0 1-.044.041.697.697 0 0 1-.239.04c-.082 0-.182-.04-.3-.118a2.08 2.08 0 0 1-.365-.324 4.307 4.307 0 0 1-.425-.574 9.81 9.81 0 0 1-.49-.87L4.418 5a20.392 20.392 0 0 1-.358-.682 12.754 12.754 0 0 1-.401-.866.554.554 0 0 0-.21-.268l-.045-.026a.618.618 0 0 0-.14-.071.982.982 0 0 0-.204-.056l-2.422.002c-.248-.002-.416.05-.505.155l-.036.05a.257.257 0 0 0-.027.134c0 .06.017.136.052.225.348.787.728 1.545 1.14 2.277.41.73.768 1.32 1.071 1.767.304.447.614.869.93 1.265.316.397.525.652.627.763.103.112.183.196.242.252l.22.202c.14.134.347.295.62.483.273.189.575.374.907.557a5.12 5.12 0 0 0 1.16.45c.441.116.871.164 1.29.145l1.016.006c.207-.015.363-.076.47-.18l.035-.042a.536.536 0 0 0 .068-.154.803.803 0 0 0 .032-.23 2.585 2.585 0 0 1 .061-.645c.046-.192.097-.336.154-.433a1.071 1.071 0 0 1 .342-.365.587.587 0 0 1 .071-.029c.142-.044.308 0 .499.133.19.131.37.294.536.487.167.193.367.41.602.65.234.24.44.42.615.538l.176.101c.118.068.27.13.46.187.187.056.352.071.494.044l2.263-.019c.224.001.398-.033.522-.101.124-.069.198-.145.223-.228a.61.61 0 0 0 .006-.284 1 1 0 0 0-.06-.221z" fill="#9C9C9C"/></g><defs><clipPath id="a"><path fill="#fff" transform="rotate(.354 .045 14.702)" d="M0 0h16.98v13.061H0z"/></clipPath></defs></svg>