<svg width="14" height="14" viewBox="0 0 14 14" fill="none" xmlns="http://www.w3.org/2000/svg"><g clip-path="url(#a)"><path d="M14 2.66a5.736 5.736 0 0 1-1.65.452 2.884 2.884 0 0 0 1.263-1.588 5.79 5.79 0 0 1-1.825.697A2.872 2.872 0 0 0 6.894 4.84a8.154 8.154 0 0 1-5.919-3 2.87 2.87 0 0 0 .889 3.834 2.872 2.872 0 0 1-1.3-.361v.036c0 1.39.99 2.552 2.303 2.816a2.893 2.893 0 0 1-1.297.047 2.874 2.874 0 0 0 2.682 1.995 5.763 5.763 0 0 1-3.567 1.227c-.232 0-.46-.014-.685-.04a8.118 8.118 0 0 0 4.402 1.293c5.283 0 8.171-4.376 8.171-8.171l-.01-.372A5.735 5.735 0 0 0 14 2.66z" fill="#9C9C9C"/></g><defs><clipPath id="a"><path fill="#fff" transform="matrix(1 0 0 -1 0 14)" d="M0 0h14v14H0z"/></clipPath></defs></svg>